<?xml version="1.0" encoding="UTF-8"?>
<svg width="21px" height="21px" viewBox="0 0 21 21" version="1.1" xmlns="http://www.w3.org/2000/svg" xmlns:xlink="http://www.w3.org/1999/xlink">
    <!-- Generator: Sketch 48.1 (47250) - http://www.bohemiancoding.com/sketch -->
    <title>search-icon</title>
    <desc>Created with Sketch.</desc>
    <defs></defs>
    <g id="All-contacts" stroke="none" stroke-width="1" fill="none" fill-rule="evenodd" transform="translate(-280.000000, -41.000000)">
        <g id="header" transform="translate(0.000000, 20.000000)" fill="#FFFFFF">
            <path d="M288.860041,36.8423855 C285.008053,36.8423855 281.874239,33.7103301 281.874239,29.8604899 C281.874239,26.0082641 285.008053,22.8743344 288.860041,22.8743344 C292.712028,22.8743344 295.845842,26.0082641 295.845842,29.8604899 C295.845842,33.7103301 292.712028,36.8423855 288.860041,36.8423855 M300.725722,40.4095421 L295.74868,35.4322471 C297.020394,33.8606177 297.720081,31.8843024 297.720081,29.8604899 C297.720081,24.9747817 293.745458,21 288.860041,21 C283.974623,21 280,24.9747817 280,29.8604899 C280,34.7461555 283.974623,38.7209798 288.860041,38.7209798 C290.884389,38.7209798 292.859071,38.0227476 294.427256,36.7536954 L299.404341,41.7267305 C299.586525,41.908967 299.825832,42.0000426 300.065095,42 C300.304274,42 300.543452,41.908967 300.725424,41.7270287 C300.902497,41.5521619 301,41.3181257 301,41.0680724 C301,40.8181895 300.902582,40.5843237 300.725722,40.4095421" id="search-icon"></path>
        </g>
    </g>
</svg>