<?xml version="1.0" encoding="UTF-8"?>
<svg width="21px" height="21px" viewBox="0 0 21 21" version="1.1" xmlns="http://www.w3.org/2000/svg" xmlns:xlink="http://www.w3.org/1999/xlink">
    <!-- Generator: Sketch 48.1 (47250) - http://www.bohemiancoding.com/sketch -->
    <title>Fill 5</title>
    <desc>Created with Sketch.</desc>
    <defs></defs>
    <g id="Login" stroke="none" stroke-width="1" fill="none" fill-rule="evenodd" transform="translate(-133.000000, -146.000000)">
        <g id="LOGO" transform="translate(115.000000, 101.000000)" fill="#FFFFFF">
            <path d="M25.4907,62.8274 C24.5867,62.4164 23.7997,61.8544 23.1527,61.1584 C22.5047,60.4604 21.9867,59.6254 21.6157,58.6774 C21.2447,57.7284 21.0547,56.7034 21.0547,55.5764 C21.0547,54.5014 21.2387,53.4784 21.6017,52.5394 C21.9657,51.6014 22.4767,50.7714 23.1257,50.0724 C23.7737,49.3764 24.5547,48.8194 25.4497,48.4174 C26.3427,48.0164 27.3367,47.8134 28.4027,47.8134 C29.4707,47.8134 30.4677,48.0204 31.3677,48.4314 C32.2717,48.8424 33.0567,49.4034 33.7057,50.0984 C34.3537,50.7984 34.8717,51.6334 35.2427,52.5804 C35.6137,53.5294 35.8017,54.5564 35.8017,55.6814 C35.8017,56.7564 35.6177,57.7784 35.2547,58.7184 C34.8927,59.6564 34.3817,60.4854 33.7307,61.1844 C33.0847,61.8804 32.3027,62.4374 31.4067,62.8404 C29.6277,63.6394 27.2917,63.6454 25.4907,62.8274 M37.2797,51.8804 C36.8327,50.7144 36.1857,49.6724 35.3597,48.7814 C34.5317,47.8914 33.5197,47.1724 32.3537,46.6414 C31.1817,46.1114 29.8717,45.8424 28.4557,45.8424 C27.0217,45.8424 25.7017,46.1114 24.5297,46.6414 C23.3597,47.1734 22.3477,47.8974 21.5237,48.7974 C20.6977,49.6924 20.0477,50.7424 19.5907,51.9184 C19.1337,53.0924 18.9027,54.3414 18.9027,55.6814 C18.9027,56.9714 19.1297,58.2154 19.5767,59.3774 C20.0257,60.5434 20.6727,61.5854 21.4987,62.4754 C22.3267,63.3664 23.3347,64.0864 24.4887,64.6144 C25.6527,65.1454 26.9697,65.4154 28.4027,65.4154 C29.8187,65.4154 31.1337,65.1464 32.3147,64.6154 C33.4907,64.0864 34.5067,63.3604 35.3347,62.4604 C36.1587,61.5644 36.8087,60.5144 37.2677,59.3394 C37.7097,58.2064 37.9397,57.0014 37.9557,55.7574 L38.0957,55.5764 L37.9557,55.4264 C37.9377,54.1914 37.7117,52.9994 37.2797,51.8804" id="Fill-5"></path>
        </g>
    </g>
</svg>