<?xml version="1.0" encoding="UTF-8"?>
<svg width="38px" height="37px" viewBox="0 0 38 37" version="1.1" xmlns="http://www.w3.org/2000/svg" xmlns:xlink="http://www.w3.org/1999/xlink">
    <!-- Generator: Sketch 48.1 (47250) - http://www.bohemiancoding.com/sketch -->
    <title>Fill 1</title>
    <desc>Created with Sketch.</desc>
    <defs></defs>
    <g id="Login" stroke="none" stroke-width="1" fill="none" fill-rule="evenodd" transform="translate(-155.000000, -101.000000)">
        <g id="LOGO" transform="translate(115.000000, 101.000000)" fill="#FFFFFF">
            <path d="M66.6919,0.0003 L50.7519,0.0003 C44.8919,0.0003 40.1259,4.7673 40.1259,10.6263 L40.1259,19.9253 C40.1259,25.5603 44.5379,30.1723 50.0879,30.5183 L50.0879,27.8953 C50.0879,27.5273 50.3849,27.2303 50.7519,27.2303 C51.1189,27.2303 51.4159,27.5273 51.4159,27.8953 L51.4159,30.5523 L51.4159,31.2163 L51.4159,36.9183 L52.3189,36.0163 C55.8419,32.4923 60.5269,30.5523 65.5089,30.5523 L66.6919,30.5523 C72.5509,30.5523 77.3189,25.7843 77.3189,19.9253 L77.3189,10.6263 C77.3189,4.7673 72.5509,0.0003 66.6919,0.0003" id="Fill-1"></path>
        </g>
    </g>
</svg>