<?xml version="1.0" encoding="UTF-8"?>
<svg width="21px" height="21px" viewBox="0 0 21 21" version="1.1" xmlns="http://www.w3.org/2000/svg" xmlns:xlink="http://www.w3.org/1999/xlink">
    <!-- Generator: Sketch 48.1 (47250) - http://www.bohemiancoding.com/sketch -->
    <title>Fill 1</title>
    <desc>Created with Sketch.</desc>
    <defs></defs>
    <g id="Chat" stroke="none" stroke-width="1" fill="none" fill-rule="evenodd" transform="translate(-36.000000, -542.000000)">
        <g id="input-message" transform="translate(17.000000, 530.000000)" fill="#BBBBBB">
            <g id="icons" transform="translate(19.000000, 12.000000)">
                <path d="M14.9191458,12.5742701 C14.1649121,14.3184477 12.398557,15.4453822 10.4194542,15.4453822 C8.39776262,15.4453822 6.62100561,14.3125598 5.89287477,12.5597467 C5.7682486,12.2594664 5.91053832,11.9150271 6.21081869,11.7902047 C6.28461308,11.7597841 6.3613514,11.7450645 6.43651963,11.7450645 C6.66751963,11.7450645 6.8863514,11.8816626 6.98036075,12.1083449 C7.5255757,13.4205505 8.87546355,14.2680084 10.4194542,14.2680084 C11.9289028,14.2680084 13.2709402,13.4199617 13.8383327,12.1067748 C13.9674729,11.808457 14.314071,11.6706813 14.612585,11.800214 C14.9107065,11.9295505 15.048286,12.2757561 14.9191458,12.5742701 M12.0421458,7.58981215 C12.0421458,6.91781215 12.5873607,6.37279346 13.2593607,6.37279346 C13.9313607,6.37279346 14.4761832,6.91761589 14.4761832,7.58981215 C14.4761832,8.26220467 13.931557,8.8070271 13.2593607,8.8070271 C12.5873607,8.8070271 12.0421458,8.26220467 12.0421458,7.58981215 M6.52385607,7.58981215 C6.52385607,6.91781215 7.0686785,6.37279346 7.7406785,6.37279346 C8.41248224,6.37279346 8.9576972,6.91761589 8.9576972,7.58981215 C8.9576972,8.26220467 8.41248224,8.8070271 7.7406785,8.8070271 C7.0686785,8.8070271 6.52385607,8.26220467 6.52385607,7.58981215 M16.6344729,16.634728 C13.201071,20.0683262 7.61428598,20.0687187 4.18068785,16.6351206 C0.746697196,13.2011299 0.74708972,7.61395234 4.18068785,4.18035421 C7.61408972,0.74734486 13.2006785,0.746952336 16.6348654,4.18074673 C20.0682673,7.61434486 20.0678748,13.2015224 16.6344729,16.634728 M17.7706318,3.04576542 C13.7105664,-1.01488879 7.10459439,-1.01488879 3.04511776,3.04478411 C-1.01514393,7.10445701 -1.01494766,13.7106252 3.04531402,17.7710832 C7.10459439,21.8305598 13.7105664,21.8305598 17.7702393,17.7702981 C21.8303047,13.7106252 21.8299121,7.10484953 17.7706318,3.04576542" id="Fill-1"></path>
            </g>
        </g>
    </g>
</svg>