<?xml version="1.0" encoding="UTF-8"?>
<svg width="20px" height="26px" viewBox="0 0 20 26" version="1.1" xmlns="http://www.w3.org/2000/svg" xmlns:xlink="http://www.w3.org/1999/xlink">
    <!-- Generator: Sketch 48.1 (47250) - http://www.bohemiancoding.com/sketch -->
    <title>Fill 1</title>
    <desc>Created with Sketch.</desc>
    <defs></defs>
    <g id="Chat" stroke="none" stroke-width="1" fill="none" fill-rule="evenodd" transform="translate(-285.000000, -41.000000)">
        <g id="call-icon" transform="translate(295.000000, 54.088000) rotate(-10.000000) translate(-295.000000, -54.088000) translate(284.000000, 43.000000)" fill="#FFFFFF">
            <path d="M17.1644704,14.0858784 C19.1018784,11.7568704 20.4079744,9.5841504 21.2728384,7.2509184 C21.5940384,6.3848224 22.0086944,5.0824224 21.9015104,3.7763264 C21.8494144,3.1874304 21.6271264,2.7127584 21.2026144,2.2880704 L19.2322944,0.3003264 C19.0860384,0.1616384 18.8621664,7.04e-05 18.6136544,7.04e-05 C18.5429024,7.04e-05 18.3274784,7.04e-05 18.0316224,0.2931104 L17.9825184,0.3399264 C17.6349184,0.6607744 17.2904864,1.0115424 16.9698144,1.3427744 C16.7929344,1.5317984 16.5792704,1.7454624 16.4076704,1.9170624 L14.8233184,3.5010624 C14.3637824,3.9609504 14.3637824,4.3192864 14.8234944,4.7791744 C14.9055104,4.8610144 14.9875264,4.9444384 15.0695424,5.0278624 L15.0829184,5.0414144 C15.1593024,5.1193824 15.2353344,5.1966464 15.3111904,5.2725024 L15.4493504,5.4125984 C15.8214144,5.7901184 16.2040384,6.1783744 16.5949344,6.5358304 L17.6305184,7.4825344 L17.0527104,8.7617024 C16.6320704,9.6927424 16.0558464,10.6067104 15.2395584,11.6380704 C13.5971264,13.6566144 11.8802464,15.2187904 9.9833184,16.4235104 C9.7237184,16.5850784 9.4660544,16.7137344 9.2388384,16.8274304 L9.1038464,16.8971264 C9.0142624,16.9428864 8.9274944,16.9874144 8.8409024,17.0340544 L7.5749344,17.7146464 L4.7232064,14.8718944 C4.5046144,14.6534784 4.2972864,14.5431264 4.1054464,14.5431264 C4.0380384,14.5431264 3.8328224,14.5431264 3.5399584,14.8479584 L3.5179584,14.8703104 L0.3240864,18.0759744 C0.1739584,18.2246944 7.04e-05,18.4485664 7.04e-05,18.6949664 C7.04e-05,18.9566784 0.1827584,19.2016704 0.3360544,19.3611264 C0.5351104,19.5693344 0.7551104,19.7877504 1.0305504,20.0501664 L1.1181984,20.1349984 C1.4599904,20.4653504 1.8470144,20.8395264 2.1953184,21.2598144 C2.7000864,21.7879904 3.3004224,22.0342144 4.0822144,22.0342144 C4.1665184,22.0342144 4.2590944,22.0292864 4.3479744,22.0252384 C5.9631264,21.9199904 7.4672224,21.2964224 8.7257984,20.7003104 C11.9562784,19.1384864 14.7976224,16.9120864 17.1644704,14.0858784" id="Fill-1"></path>
        </g>
    </g>
</svg>