<?xml version="1.0" encoding="UTF-8"?>
<svg width="45px" height="44px" viewBox="0 0 45 44" version="1.1" xmlns="http://www.w3.org/2000/svg" xmlns:xlink="http://www.w3.org/1999/xlink">
    <!-- Generator: Sketch 48.1 (47250) - http://www.bohemiancoding.com/sketch -->
    <title>Fill 4</title>
    <desc>Created with Sketch.</desc>
    <defs>
        <filter x="-14.7%" y="-13.2%" width="129.3%" height="128.9%" filterUnits="objectBoundingBox" id="filter-1">
            <feOffset dx="0" dy="1" in="SourceAlpha" result="shadowOffsetOuter1"></feOffset>
            <feGaussianBlur stdDeviation="3.5" in="shadowOffsetOuter1" result="shadowBlurOuter1"></feGaussianBlur>
            <feColorMatrix values="0 0 0 0 0   0 0 0 0 0   0 0 0 0 0  0 0 0 0.278334466 0" type="matrix" in="shadowBlurOuter1" result="shadowMatrixOuter1"></feColorMatrix>
            <feMerge>
                <feMergeNode in="shadowMatrixOuter1"></feMergeNode>
                <feMergeNode in="SourceGraphic"></feMergeNode>
            </feMerge>
        </filter>
    </defs>
    <g id="Contacts-chat---selected-contact" stroke="none" stroke-width="1" fill="none" fill-rule="evenodd" transform="translate(-269.000000, -491.000000)">
        <g id="all-contacts-button" filter="url(#filter-1)" transform="translate(253.000000, 473.000000)" fill="#FFFFFF">
            <path d="M23.1644,54.9518 L23.1644,53.4248 C23.1644,45.0598 23.1624,36.6968 23.1664,28.3328 C23.1674,25.8608 24.1774,24.8638 26.6834,24.8618 C34.4664,24.8578 42.2484,24.8568 50.0304,24.8618 C52.4984,24.8638 53.5284,25.8968 53.5314,28.3708 C53.5374,34.1398 53.5384,39.9098 53.5304,45.6798 C53.5274,47.9758 52.4624,49.0488 50.1724,49.0518 C43.6424,49.0608 37.1124,49.0798 30.5824,49.0318 C29.4554,49.0238 28.6424,49.3518 27.8814,50.1688 C26.4344,51.7238 24.9014,53.1998 23.1644,54.9518" id="Fill-4"></path>
        </g>
    </g>
</svg>