<?xml version="1.0" encoding="UTF-8"?>
<svg width="12px" height="22px" viewBox="0 0 12 22" version="1.1" xmlns="http://www.w3.org/2000/svg" xmlns:xlink="http://www.w3.org/1999/xlink">
    <!-- Generator: Sketch 48.1 (47250) - http://www.bohemiancoding.com/sketch -->
    <title>Fill 1</title>
    <desc>Created with Sketch.</desc>
    <defs></defs>
    <g id="Chat" stroke="none" stroke-width="1" fill="none" fill-rule="evenodd" transform="translate(-25.000000, -37.000000)">
        <g id="previous-icon" transform="translate(25.000000, 37.000000)" fill="#FFFFFF">
            <path d="M2.65603606,11.0098815 L11.6762105,1.90747871 C12.1079298,1.47182381 12.1079298,0.762464781 11.6762105,0.32680988 C11.2441281,-0.109028223 10.5415403,-0.108845021 10.1098209,0.32680988 L0.324243364,10.20141 C0.112014645,10.4153902 0,10.688728 0,10.9917445 C0,11.2861504 0.118187251,11.5741443 0.324243364,11.7820789 L10.1020144,21.6486181 C10.3087967,21.8706592 10.5871086,21.9954199 10.8850276,21.9998168 C10.8906556,22 10.8964651,22 10.9020931,22 C11.1938395,22 11.4681574,21.884949 11.676392,21.6749992 C12.1079298,21.2393443 12.1079298,20.5303517 11.6760289,20.093964 L2.65603606,11.0098815 Z" id="Fill-1"></path>
        </g>
    </g>
</svg>