<?xml version="1.0" encoding="UTF-8"?>
<svg width="13px" height="10px" viewBox="0 0 13 10" version="1.1" xmlns="http://www.w3.org/2000/svg" xmlns:xlink="http://www.w3.org/1999/xlink">
    <!-- Generator: Sketch 48.1 (47250) - http://www.bohemiancoding.com/sketch -->
    <title>Fill 3</title>
    <desc>Created with Sketch.</desc>
    <defs></defs>
    <g id="Contacts-chat---selected-contact" stroke="none" stroke-width="1" fill="none" fill-rule="evenodd" transform="translate(-74.000000, -259.000000)">
        <g id="select-icon" transform="translate(71.000000, 254.000000)" fill="#FFFFFF">
            <path d="M3.78687813,10.3019188 C3.69662813,10.2122625 3.65150313,10.0768875 3.65150313,9.9866375 C3.65150313,9.8963875 3.69662813,9.7610125 3.78687813,9.67135625 L4.41744063,9.0402 C4.59794063,8.8597 4.86869063,8.8597 5.04919063,9.0402 L5.09372188,9.08473125 L7.57322188,11.7447313 C7.66287813,11.8349813 7.79884688,11.8349813 7.88850313,11.7447313 L13.9287219,5.4788875 L13.9738469,5.4788875 C14.1543469,5.29898125 14.4245031,5.29898125 14.6050031,5.4788875 L15.2361594,6.11004375 C15.4166594,6.29054375 15.4166594,6.5607 15.2361594,6.7412 L8.02387813,14.2236375 C7.93362813,14.3138875 7.84337813,14.3590125 7.70800313,14.3590125 C7.57322188,14.3590125 7.48297188,14.3138875 7.39272188,14.2236375 L3.87653438,10.4378875 L3.78687813,10.3019188 Z" id="Fill-3"></path>
        </g>
    </g>
</svg>