<?xml version="1.0" encoding="UTF-8"?>
<svg width="25px" height="22px" viewBox="0 0 25 22" version="1.1" xmlns="http://www.w3.org/2000/svg" xmlns:xlink="http://www.w3.org/1999/xlink">
    <!-- Generator: Sketch 48.1 (47250) - http://www.bohemiancoding.com/sketch -->
    <title>Fill 1</title>
    <desc>Created with Sketch.</desc>
    <defs></defs>
    <g id="Chat" stroke="none" stroke-width="1" fill="none" fill-rule="evenodd" transform="translate(-249.000000, -541.000000)">
        <g id="input-message" transform="translate(17.000000, 530.000000)" fill="#6F6FDB">
            <g id="attached-icon" transform="translate(232.000000, 11.000000)">
                <path d="M23.1086949,1.83278995 C20.5869548,-0.610929984 16.4976619,-0.610929984 13.975993,1.83278995 L1.41905285,14.0011616 C-0.473017616,15.8346242 -0.473017616,18.8056009 1.41905285,20.6392016 C2.97856033,22.1503904 5.33077948,22.3944933 7.1695943,21.413597 C7.36168484,21.4042138 7.5505715,21.3338393 7.6975229,21.1929523 L20.2543918,9.02464966 C21.5152263,7.80282419 21.5152263,5.82219604 20.2543918,4.60037057 C18.9935573,3.3785451 16.9496941,3.3785451 15.6888596,4.60037057 L5.4147212,14.5565681 C5.09988637,14.8616623 5.09988637,15.3575265 5.4147212,15.6626207 C5.72955603,15.9677148 6.24132282,15.9677148 6.55608645,15.6626207 L16.8301537,5.70642309 C17.4614609,5.09471692 18.4833569,5.09471692 19.1130266,5.70642309 C19.7442626,6.31812927 19.7442626,7.30840884 19.1130266,7.91859714 L7.1260215,19.5345979 C5.86518704,20.7564234 3.82132376,20.7564234 2.5604893,19.5345979 C1.29965484,18.3127725 1.29965484,16.3321443 2.5604893,15.1103189 L15.1173582,2.93884248 C17.0094287,1.10531083 20.075188,1.10531083 21.9673297,2.93884248 C23.8594001,4.77237412 23.8594001,7.74328184 21.9673297,9.57688248 L10.551826,20.6392016 C10.2369912,20.9442957 10.2369912,21.44016 10.551826,21.7451851 C10.8666608,22.0503482 11.3784276,22.0503482 11.6931913,21.7451851 L23.1086949,10.682935 C25.630435,8.23928406 25.630435,4.27650989 23.1086949,1.83278995" id="Fill-1"></path>
            </g>
        </g>
    </g>
</svg>