<?xml version="1.0" encoding="UTF-8"?>
<svg width="17px" height="20px" viewBox="0 0 17 20" version="1.1" xmlns="http://www.w3.org/2000/svg" xmlns:xlink="http://www.w3.org/1999/xlink">
    <!-- Generator: Sketch 48.1 (47250) - http://www.bohemiancoding.com/sketch -->
    <title>Fill 14</title>
    <desc>Created with Sketch.</desc>
    <defs></defs>
    <g id="Login" stroke="none" stroke-width="1" fill="none" fill-rule="evenodd" transform="translate(-215.000000, -147.000000)">
        <g id="LOGO" transform="translate(115.000000, 101.000000)" fill="#FFFFFF">
            <path d="M102.2524,48.1262 L108.0924,48.1262 C109.6624,48.1262 110.8834,48.4592 111.7214,49.1152 C112.5434,49.7602 112.9434,50.6182 112.9434,51.7932 C112.9434,52.3902 112.8224,52.9232 112.5824,53.3802 C112.3404,53.8422 112.0044,54.2392 111.5844,54.5602 C111.1524,54.8872 110.6294,55.1432 110.0254,55.3202 C109.4144,55.5002 108.7384,55.5922 108.0144,55.5922 L102.2524,55.5922 L102.2524,48.1262 Z M110.0184,57.2202 C110.5764,57.1062 111.1074,56.9462 111.6024,56.7422 C112.2874,56.4592 112.8934,56.0812 113.4004,55.6202 C113.9124,55.1552 114.3184,54.5932 114.6094,53.9492 C114.8984,53.3062 115.0454,52.5672 115.0454,51.7022 C115.0454,50.9982 114.9124,50.3242 114.6524,49.6992 C114.3914,49.0752 114.0234,48.5232 113.5574,48.0572 C112.9674,47.4672 112.2034,46.9962 111.2894,46.6582 C110.3834,46.3232 109.3344,46.1532 108.1704,46.1532 L100.1504,46.1532 L100.1504,65.1042 L102.2524,65.1042 L102.2524,57.5642 L107.6474,57.5642 L113.4454,65.1042 L116.1094,65.1042 L110.0184,57.2202 Z" id="Fill-14"></path>
        </g>
    </g>
</svg>